<?xml version="1.0" encoding="utf-8"?>
<!-- Generator: Adobe Illustrator 17.0.0, SVG Export Plug-In . SVG Version: 6.00 Build 0)  -->
<!DOCTYPE svg PUBLIC "-//W3C//DTD SVG 1.1//EN" "http://www.w3.org/Graphics/SVG/1.1/DTD/svg11.dtd">
<svg version="1.1" id="Layer_1" xmlns="http://www.w3.org/2000/svg" xmlns:xlink="http://www.w3.org/1999/xlink" x="0px" y="0px"
	 width="361.311px" height="603.53px" viewBox="117.423 118.829 361.311 603.53"
	 enable-background="new 117.423 118.829 361.311 603.53" xml:space="preserve">
<path fill="#D61830" d="M478.734,249.585c-0.175-14.119-11.576-25.432-25.607-25.432s-25.432,11.401-25.608,25.432l0,0v129.616
	c0,0.175,0,0.263,0,0.439c0,3.596-2.894,6.49-6.49,6.49c-3.596,0-6.49-2.894-6.49-6.49l0,0V186.794c0-0.263,0-0.526,0-0.702
	c0-17.539-14.119-31.746-31.571-31.746s-31.571,14.207-31.571,31.746c0,0.088,0,0.088,0,0.175l0,0v188.987l0,0
	c0,3.596-2.894,6.49-6.49,6.49c-3.596,0-6.49-2.894-6.49-6.49c0-0.088,0-0.175,0-0.263V153.206c0-0.614,0.088-1.14,0.088-1.754
	c0-17.978-14.558-32.623-32.448-32.623c-17.89,0-32.448,14.558-32.448,32.623c0,0.175,0,0.438,0,0.614l0,0v225.469l0,0
	c0,0,0,0,0,0.088c0,3.596-2.894,6.49-6.49,6.49c-3.596,0-6.49-2.894-6.49-6.49v-0.088V186.356l0,0c0-0.088,0-0.088,0-0.175
	c0-17.539-14.119-31.746-31.571-31.746s-31.571,14.207-31.571,31.746c0,0.351,0,0.702,0,1.052v328.162
	c0,0-13.155,0.263-13.155-11.313c0-39.639,0-98.133,0-98.133l0,0c0-0.175,0-0.351,0-0.438c0-25.958-18.855-47.006-44.725-47.006
	c-7.63,0-15.785,1.842-22.187,5.086c0,0,0,224.855,0,233.8c0,0.438,0,0.789,0,1.228c0,60.949,51.917,123.74,180.656,123.74
	c128.301,0,180.305-49.11,180.656-109.709v0.088V249.585L478.734,249.585z M313.338,597.479L313.338,597.479
	C313.25,597.479,313.25,597.479,313.338,597.479c-44.901-41.042-63.493-65.51-63.493-86.206c0-18.066,14.295-31.132,32.536-31.132
	c13.768,0,25.871,8.682,30.957,20.696c5.086-12.014,17.189-20.696,30.957-20.696c18.241,0,32.536,13.067,32.536,31.132
	C376.83,531.969,358.151,556.437,313.338,597.479z"/>
</svg>
